<svg width="335" height="268" viewBox="0 0 335 268" fill="none" xmlns="http://www.w3.org/2000/svg">
<g clip-path="url(#clip0_8_4540)">
<path d="M0 0H335V268H0V0Z" fill="#FDFDFD"/>
<path d="M72.5 37.3977L80 37.8977L89 39.3977L94.25 40.6477L100.25 42.3977L107 44.8977L115.25 48.6477L122.25 52.3977L123.25 53.3977L123 54.8977L120 62.1477L118.75 65.3977L118 66.6477L116.75 66.3977L114 64.8977L110 62.6477L104.25 59.8977L101 58.3977L94.75 56.1477L86.25 53.8977L81 52.8977L79 58.8977L77.5 64.6477L76.5 69.6477L75.75 77.1477V87.8977L76.5 94.6477L77.75 102.148L79 107.398L81 113.648L83 119.148L85 123.648L88.75 131.148L92.5 137.148L95.75 141.898L98.25 145.148L100.5 147.898L102.75 150.398L104.5 152.398L107.25 155.398L109.25 157.148L112.75 160.398L115.5 162.648L119.75 165.898L124.25 168.898L129.25 171.898L133.5 174.148L138.5 176.398L140 177.148L139 175.398L136.5 171.898L133.5 167.148L131 162.648L128.5 157.898L125.5 150.898L122.5 142.398L120 132.898L119.5 130.148V128.898L120 128.398L121.5 128.648L124.75 131.148L127.25 133.148L130.25 135.898L135.25 140.898L137.75 144.148L140 147.398L142.75 153.398L146.5 160.148L149 163.898L151.5 167.398L155.5 172.398V172.898H156L155 169.148L152.75 161.398L150 154.398L147 148.648L144 143.898L140.75 139.648L138 136.398L135 133.148L131 129.398L127.5 126.648L123.75 123.898L119 120.898L113.75 117.898L109.75 115.898L105 113.648L99.75 111.648L94.75 109.898L86.25 107.398L84.25 106.898L83 102.398L81.75 95.6477L81.5 91.6477H83.75L91 93.3977L98 95.3977L106 98.1477L112.5 100.898L119.75 104.398L123.25 106.398L126 107.898L130 110.398L132.5 112.148L136.75 115.148L140 117.898L142.75 120.148L148.75 126.148L150.5 128.148L153.25 131.398L156.75 136.398L159.25 140.398L161.75 144.898L164.5 150.898H165L166 148.398L168.75 142.898L171.25 138.648L174.5 133.898L177.75 129.898L179.75 127.398L182.5 124.398L187.25 119.648L189.75 117.648L191.25 117.398L191.5 117.648V120.148L190.5 126.148L188.75 133.648L185.75 142.648L183.75 146.648L181.25 150.898L178.5 156.648L176.5 161.898L174.75 168.148L174 171.398V172.398L177 168.898L180 164.648L182.5 160.898L185.5 155.648L188.75 149.148L191.5 142.148L193.5 135.648L195.5 127.148L196.5 121.398L197.25 112.148V100.148L196.75 93.6477L196 88.8977V87.1477L199.5 83.3977L200 83L200.25 82.6477L202.25 80.8977L205.25 78.1477L207.5 76.6477H208.5L209.25 78.8977L210.5 85.6477L211.5 92.6477L212 98.1477L212.25 102.898V110.898L211.5 120.648L210 130.648L207.5 140.648L204.75 148.898L202.5 154.398L199.75 160.398L196.75 165.898L193.5 171.148L190.5 175.398L189.25 176.898L192.75 175.648L199.75 172.148L205.5 168.648L210.25 165.398L214.75 161.898L217.5 159.648L221.25 156.148L223.25 154.398L226.75 150.648L228.5 148.648L231.5 144.898L235 140.148L239.25 133.648L242.25 128.398L245.5 121.648L248.5 113.898L249.25 111.648L249.75 111.148L255.75 109.898L261.75 108.898L264.75 108.648L265 108.898L264.75 111.398L262.5 118.398L260.5 123.898L257.5 130.648L254.75 136.148L252.5 140.148L248.75 146.148L244.75 151.898L241.5 155.898L239.25 158.648L233.75 164.648L231 167.398L229 169.148L226.5 171.398L221 175.898L218.75 177.398H218.25V177.898L228.25 175.398L235.5 173.148L241 171.148L246.5 168.898L251.75 166.398L257.25 163.398L260.75 161.398L263.5 159.648L267.75 156.648L270.25 154.648L273.75 151.648L277.5 148.148L280.25 145.148L282.5 142.398L285.25 138.898L288 134.898L290.5 130.648L294 123.398L296.5 116.648L298.5 108.898L300 101.648L282.25 101.898L273.5 102.398L264.25 103.398L254.75 104.898L246.25 106.648L237 109.148L228 112.148L222.25 114.648L218.5 116.148L217.25 115.898V111.898L217.5 100.898L218.75 100.148L225 97.6477L230.5 95.6477L237.25 93.6477L245.25 91.6477L255.5 89.6477L266.5 88.1477L275.25 87.3977L286.25 86.8977H297.5L309.25 87.3977L315.75 87.8977V90.6477L314.75 101.648L313.25 110.648L311.75 117.148L308.75 126.148L306.75 131.148L304.75 135.398L301.75 140.898L297.75 146.898L294.5 151.148L291.75 154.398L289 157.398L283.5 162.898L280.75 165.148L276.75 168.398L273.5 170.648L268.75 173.898L266 175.398L262.5 177.398L256.75 180.398L249.5 183.648L242.25 186.398L234 189.148L224.75 191.648L213.75 193.898L200.75 195.898L187.75 197.148L173.5 197.898L174 199.148L176.25 203.148L178.75 206.398L181.75 209.398L184.75 211.648L188.5 214.148L192.75 216.398L198.75 218.898L205.5 221.148L214 223.148L222.5 224.398L227.75 224.898L238 225.398L236.25 222.148L234.25 219.398L231.5 216.148L229 213.898L225.25 211.148L221.25 208.648L215.5 205.648L208.75 202.898L206.5 201.898L206 200.898L207.5 200.148L218.75 198.148L227.75 196.148L229.5 196.398L233.5 198.898L237.5 201.898L240.25 204.148L244.5 208.398L247.75 212.648L250 216.398L252 220.648L253.25 224.398L254.25 229.398L255 237.398V238.898L251.25 239.398L244.25 239.898H229.5L221.75 239.148L215.75 238.398L208.75 237.148L201.75 235.398L195.25 233.398L191.25 231.898L188 230.398L184 228.398L180.25 226.398L177.25 224.398L174 221.898L170.75 219.148L166.25 214.648L165 212.898L164 213.398L161.75 216.148L157.5 220.398L153.5 223.398L149 226.398L145.5 228.398L141.5 230.398L134.75 233.148L127.75 235.398L120.5 237.148L113.75 238.398L108 239.148L99.25 239.898H85L76.25 239.148L75 238.648V230.898L75.75 226.148L77 222.148L78.75 217.898L81 213.898L83.5 210.398L85.75 207.648L90.25 203.148L93.75 200.398L97.25 197.898L100.25 196.148L102.75 196.398L114.25 198.898L122 200.148L123 200.648L123.25 201.648L121.75 202.648L116.75 204.398L110.25 207.398L104.75 210.648L100.75 213.648L97.75 216.398L95.5 218.898L92.5 223.148L91.75 224.648V225.148H95.75L104.25 224.648L112.25 223.648L120 222.148L126.5 220.398L132 218.398L136.5 216.398L141.25 213.898L145 211.398L147.5 209.398L150.75 206.398L153.5 202.898L155 200.398L156 198.398V197.898L138.5 196.898L127.25 195.648L120.25 194.648L113.25 193.398L105 191.648L95.5 189.148L85.5 185.898L77 182.398L71 179.648L66.25 177.148L60.75 173.898L55.5 170.398L50.75 166.898L47.25 163.898L44.25 161.148L39 155.898L37.25 153.898L34.25 150.398L32.25 147.648L28.75 142.398L26.5 138.648L23.75 133.398L21.5 128.148L18.75 120.648L16.75 113.148L15.5 106.648L14.5 99.3977L14 94.3977L13.75 88.1477L14 87.8977L15.75 87.6477L25 87.1477L32.5 86.8977H43.25L54.75 87.3977L55.5 87.6477L56.25 92.8977L57 99.6477V102.148L47.25 101.898L29.5 101.648L31 109.398L32.75 115.648L35 122.148L37.75 128.148L40 132.398L43 137.148L45.5 140.648L47.5 143.148L50.25 146.148L52 148.148L55.25 151.398L58 153.648L61.25 156.398L64.5 158.648L68.25 161.148L72.5 163.648L78.25 166.648L82.25 168.648L89 171.398L99.25 174.898L107 176.898L110 177.648H110.75L108.25 175.648L104.75 172.898L102.25 170.648L100.25 168.898L97 165.898L93.25 162.148L91.5 160.148L88.75 156.898L85.75 153.148L83 149.398L80.5 145.898L77.25 140.648L74.75 136.148L72.25 131.398L69.5 125.148L67.75 120.898L64.75 111.398L63 103.898L61.75 96.3977L61 90.1477L60.75 85.1477L61 75.6477L62 67.1477L64 57.8977L66 51.3977L68.75 44.3977L71.75 37.8977L72 37.5L72.5 37.3977Z" fill="#D9373E"/>
<path d="M255 37.5H257.25L258.75 40L261.25 45.5L263.75 52L266 59.75L267.25 66L268.25 73.75L268.5 77.5V82.5L268.25 83L261.75 83.75L256 84.5H254.25L254 84.25L253.75 77.5L253 70.75L252.25 66L251 61L248.75 54L248.5 53.25L245.75 53.5L238 55.25L229 58.25L222.25 61.25L217 64L213.25 66.25L208.75 69.25L205.25 71.75L201 75.25L197.75 78.25L194.75 81L193 82.75L191.25 84.75L188.5 87.75L186.5 90.25L183.5 94.25L181.5 97.25L179.75 99.75L176 106.25L174 110.25L171.5 115.5L169.75 119.75L167.25 125.75L165.25 129.75L164 129.5L162.25 125.75L161.25 123.25L160.25 121L157.5 114.5L155.5 110L152.5 104.5L150.25 100.5L147.75 96.75L146 94.25L143.5 91L140 86.75L139.25 85.75L140.25 81.25L142.25 74.25L143.5 71L144 70.5L145.25 70.75L148.75 74.25L150.5 76.25L153.5 79.75L156 83L159 87.25L163 93.25L164.5 95.75H165L168 90.75L170 88L171.75 85.5L174.75 81.5L178 77.5L181.25 73.75L188 67L190 65.25L193.5 62.25L197 59.5L201.5 56.25L205.25 53.75L210 51L216.75 47.5L224.25 44.25L233.25 41.25L240.25 39.5L249.5 38L255 37.5Z" fill="#D9373E"/>
<path d="M164.5 14L165.5 14.25L168.5 16.25L172.5 19.25L176.75 22.75L179.75 25.5L184.75 30.5L187 33.25L190 37L193 41.25L194.75 44L196.75 47.25L199 51.5L198.5 52L193.5 55.75L189.5 59L188 60H187.5H187L186.75 59.75L183.25 53.5L180.25 48.75L178 45.75L175.5 42.5L173.25 40L171.5 38L168.75 35.25L166 33L165 32L163.75 32.5L160 36L156 40L153.75 42.75L151.25 46L149 49.25L146.5 53L143 59.25L140.5 64.5L138 70.75L136.25 76.25L134.75 82.25L133.5 88.5L132.5 95.75L132 102.75L131.75 104.5L131 104.75L125 101.5L120.25 99L118 97.75L117.75 97.5V94.5L118.75 87L120 80.5L122 72.5L124.5 65L126.75 59.5L128.75 55L130.75 51L132.5 47.75L135.5 42.75L137.5 39.75L139.5 37L142.75 33L145 30.25L152.25 23L155 20.75L157.5 18.75L162 15.5L164.5 14Z" fill="#D9373E"/>
<path d="M293.25 255H294.75L295.75 256.25L296 256.75V260.5L295 262L293.75 262.5L292.5 261.75L291.75 260.75V257L292.75 255.25L293.25 255Z" fill="#FDFDFD"/>
</g>
<defs>
<clipPath id="clip0_8_4540">
<rect width="335" height="268" fill="white"/>
</clipPath>
</defs>
</svg>
