<svg version="1.1" id="Layer_1" xmlns="http://www.w3.org/2000/svg" xmlns:xlink="http://www.w3.org/1999/xlink" x="0px" y="0px"
	 width="100%" viewBox="0 0 213 248" enable-background="new 0 0 213 248" xml:space="preserve">
<path fill="#FCFCFC" opacity="1.000000" stroke="none" 
	d="
M56.000000,249.000000 
	C37.676376,249.000000 19.352757,249.000000 1.029134,249.000000 
	C1.019422,248.843140 1.001201,248.686264 1.001199,248.529404 
	C0.999983,166.073105 1.000000,83.616798 1.000000,1.080251 
	C71.908806,1.080251 142.817734,1.080251 213.863342,1.080251 
	C213.863342,83.666512 213.863342,166.333221 213.863342,249.000000 
	C193.582413,249.000000 173.259872,249.000000 152.376572,248.604126 
	C150.647537,247.806076 149.480011,247.055267 148.310852,247.052704 
	C118.832359,246.987701 89.353615,246.976013 59.875401,247.085831 
	C58.581242,247.090637 57.291698,248.333725 56.000000,249.000000 
M66.499992,212.064362 
	C94.831459,212.064270 123.162918,212.071533 151.494385,212.060501 
	C163.089340,212.056000 169.036240,206.146896 169.049301,194.582657 
	C169.073044,173.583847 169.064224,152.585007 169.047607,131.586197 
	C169.046509,130.207413 168.864166,128.828781 168.698761,126.502403 
	C165.206406,131.169296 162.495163,135.147949 159.407608,138.809265 
	C156.794861,141.907562 155.786865,145.146698 155.852646,149.242310 
	C156.088150,163.904373 155.766281,178.575974 156.049332,193.236359 
	C156.138748,197.867859 154.784561,199.187759 150.148514,199.166382 
	C112.318100,198.992020 74.485939,198.966797 36.655994,199.186523 
	C31.448721,199.216766 30.250124,197.549667 30.266449,192.627258 
	C30.427847,143.963837 30.425522,95.299484 30.270233,46.636032 
	C30.254992,41.859863 31.559820,40.282619 36.458416,40.305092 
	C74.288834,40.478634 112.120827,40.484409 149.951126,40.298500 
	C154.925674,40.274055 156.160400,41.961231 156.042358,46.655910 
	C155.747131,58.395683 155.944946,70.147858 155.944946,82.889633 
	C160.066025,77.765594 163.752594,73.650917 166.840317,69.127472 
	C168.205719,67.127205 168.825500,64.324959 168.964996,61.840801 
	C169.272873,56.358376 169.069824,50.846767 169.059814,45.347092 
	C169.038040,33.391262 163.252106,27.551958 151.312515,27.546366 
	C112.814674,27.528336 74.316803,27.525160 35.818970,27.550676 
	C22.792156,27.559311 17.350195,33.088329 17.349974,46.164471 
	C17.349285,86.995522 17.352468,127.826569 17.354351,168.657623 
	C17.354765,177.657120 17.232250,186.658783 17.389362,195.655548 
	C17.570444,206.024994 23.724340,212.014542 34.001778,212.053787 
	C44.501038,212.093887 55.000572,212.063751 66.499992,212.064362 
M175.824936,107.310989 
	C181.417587,99.829773 187.010254,92.348557 193.095016,84.209061 
	C187.997726,80.275726 182.529083,76.334801 177.393448,71.999382 
	C173.681564,68.865875 171.158356,71.129807 169.289764,73.673515 
	C163.777557,81.177216 158.837082,89.100395 153.337952,96.614304 
	C143.218628,110.441139 133.521179,124.661255 122.376434,137.624359 
	C114.519287,146.763489 113.422165,157.205460 112.060448,168.011078 
	C111.633247,171.401077 113.278816,172.222031 116.238876,170.907196 
	C120.185692,169.154083 124.351410,167.751984 128.001328,165.511871 
	C131.696671,163.243927 135.566544,160.671158 138.167557,157.309326 
	C150.787781,140.997650 163.007355,124.375969 175.824936,107.310989 
M69.503723,96.931152 
	C65.337410,96.931442 61.171059,96.920113 57.004803,96.935310 
	C52.895596,96.950294 50.196815,98.897728 50.018139,103.078850 
	C49.832424,107.424690 52.701668,109.476952 56.689651,109.492897 
	C81.020134,109.590157 105.351204,109.574509 129.681961,109.528557 
	C132.964233,109.522362 135.491577,108.109283 136.322006,104.615799 
	C137.337952,100.341797 134.217072,96.964386 128.997314,96.951172 
	C109.499130,96.901794 90.000748,96.931259 69.503723,96.931152 
M127.164032,76.800850 
	C127.829155,76.798538 128.494293,76.798264 129.159409,76.793579 
	C133.437943,76.763443 136.243347,74.828941 136.519608,70.404282 
	C136.747635,66.752251 133.590866,64.106979 129.078262,64.097672 
	C105.133339,64.048302 81.188255,64.077034 57.243233,64.081253 
	C56.744835,64.081337 56.234509,64.048058 55.749966,64.138580 
	C52.219147,64.798203 49.998871,66.785492 49.992191,70.510864 
	C49.985889,74.027542 52.123844,75.996048 55.415329,76.645348 
	C56.861591,76.930641 58.396271,76.802528 59.890823,76.802963 
	C82.006714,76.809479 104.122604,76.806038 127.164032,76.800850 
M70.502274,129.838287 
	C66.503128,129.838364 62.503902,129.821625 58.504871,129.842529 
	C52.771049,129.872513 50.067081,131.823792 49.974983,135.956833 
	C49.883480,140.063202 52.679363,142.235123 58.296535,142.246643 
	C73.459930,142.277756 88.623421,142.257553 103.786880,142.257629 
	C112.312752,142.257660 117.113228,138.639282 120.010620,129.838287 
	C103.786003,129.838287 87.643654,129.838287 70.502274,129.838287 
M62.579247,175.122787 
	C72.875229,175.119614 83.171295,175.091110 93.467148,175.125778 
	C97.590759,175.139664 100.190468,173.247269 100.643951,169.144333 
	C101.049225,165.477539 98.028770,162.801712 93.469986,162.688385 
	C87.993141,162.552231 82.510643,162.637161 77.030594,162.637650 
	C70.055946,162.638245 63.077080,162.507233 56.108315,162.713226 
	C52.213177,162.828354 49.912041,165.234253 50.037766,169.151001 
	C50.155308,172.812943 52.430786,174.853317 56.130756,175.069916 
	C57.951725,175.176529 59.782818,175.110214 62.579247,175.122787 
M200.933716,70.502975 
	C200.468170,63.201893 194.527756,60.466484 189.262009,58.356407 
	C183.045624,55.865410 179.768036,61.419270 176.389526,65.478416 
	C181.833038,69.572701 187.301926,73.495651 192.537231,77.708839 
	C194.941269,79.643509 196.813431,79.368111 198.322403,77.090431 
	C199.474182,75.351891 200.068893,73.244308 200.933716,70.502975 
z"/>
<path fill="#F7F7F7" opacity="1.000000" stroke="none" 
	d="
M56.468658,249.000000 
	C57.291698,248.333725 58.581242,247.090637 59.875401,247.085831 
	C89.353615,246.976013 118.832359,246.987701 148.310852,247.052704 
	C149.480011,247.055267 150.647537,247.806076 151.907913,248.604126 
	C120.312439,249.000000 88.624878,249.000000 56.468658,249.000000 
z"/>
<path fill="#060606" opacity="1.000000" stroke="none" 
	d="
M65.999985,212.064362 
	C55.000572,212.063751 44.501038,212.093887 34.001778,212.053787 
	C23.724340,212.014542 17.570444,206.024994 17.389362,195.655548 
	C17.232250,186.658783 17.354765,177.657120 17.354351,168.657623 
	C17.352468,127.826569 17.349285,86.995522 17.349974,46.164471 
	C17.350195,33.088329 22.792156,27.559311 35.818970,27.550676 
	C74.316803,27.525160 112.814674,27.528336 151.312515,27.546366 
	C163.252106,27.551958 169.038040,33.391262 169.059814,45.347092 
	C169.069824,50.846767 169.272873,56.358376 168.964996,61.840801 
	C168.825500,64.324959 168.205719,67.127205 166.840317,69.127472 
	C163.752594,73.650917 160.066025,77.765594 155.944946,82.889633 
	C155.944946,70.147858 155.747131,58.395683 156.042358,46.655910 
	C156.160400,41.961231 154.925674,40.274055 149.951126,40.298500 
	C112.120827,40.484409 74.288834,40.478634 36.458416,40.305092 
	C31.559820,40.282619 30.254992,41.859863 30.270233,46.636032 
	C30.425522,95.299484 30.427847,143.963837 30.266449,192.627258 
	C30.250124,197.549667 31.448721,199.216766 36.655994,199.186523 
	C74.485939,198.966797 112.318100,198.992020 150.148514,199.166382 
	C154.784561,199.187759 156.138748,197.867859 156.049332,193.236359 
	C155.766281,178.575974 156.088150,163.904373 155.852646,149.242310 
	C155.786865,145.146698 156.794861,141.907562 159.407608,138.809265 
	C162.495163,135.147949 165.206406,131.169296 168.698761,126.502403 
	C168.864166,128.828781 169.046509,130.207413 169.047607,131.586197 
	C169.064224,152.585007 169.073044,173.583847 169.049301,194.582657 
	C169.036240,206.146896 163.089340,212.056000 151.494385,212.060501 
	C123.162918,212.071533 94.831459,212.064270 65.999985,212.064362 
z"/>
<path fill="#060606" opacity="1.000000" stroke="none" 
	d="
M175.596893,107.587555 
	C163.007355,124.375969 150.787781,140.997650 138.167557,157.309326 
	C135.566544,160.671158 131.696671,163.243927 128.001328,165.511871 
	C124.351410,167.751984 120.185692,169.154083 116.238876,170.907196 
	C113.278816,172.222031 111.633247,171.401077 112.060448,168.011078 
	C113.422165,157.205460 114.519287,146.763489 122.376434,137.624359 
	C133.521179,124.661255 143.218628,110.441139 153.337952,96.614304 
	C158.837082,89.100395 163.777557,81.177216 169.289764,73.673515 
	C171.158356,71.129807 173.681564,68.865875 177.393448,71.999382 
	C182.529083,76.334801 187.997726,80.275726 193.095016,84.209061 
	C187.010254,92.348557 181.417587,99.829773 175.596893,107.587555 
z"/>
<path fill="#0C0C0C" opacity="1.000000" stroke="none" 
	d="
M70.003082,96.931152 
	C90.000748,96.931259 109.499130,96.901794 128.997314,96.951172 
	C134.217072,96.964386 137.337952,100.341797 136.322006,104.615799 
	C135.491577,108.109283 132.964233,109.522362 129.681961,109.528557 
	C105.351204,109.574509 81.020134,109.590157 56.689651,109.492897 
	C52.701668,109.476952 49.832424,107.424690 50.018139,103.078850 
	C50.196815,98.897728 52.895596,96.950294 57.004803,96.935310 
	C61.171059,96.920113 65.337410,96.931442 70.003082,96.931152 
z"/>
<path fill="#0C0C0C" opacity="1.000000" stroke="none" 
	d="
M126.701263,76.802902 
	C104.122604,76.806038 82.006714,76.809479 59.890823,76.802963 
	C58.396271,76.802528 56.861591,76.930641 55.415329,76.645348 
	C52.123844,75.996048 49.985889,74.027542 49.992191,70.510864 
	C49.998871,66.785492 52.219147,64.798203 55.749966,64.138580 
	C56.234509,64.048058 56.744835,64.081337 57.243233,64.081253 
	C81.188255,64.077034 105.133339,64.048302 129.078262,64.097672 
	C133.590866,64.106979 136.747635,66.752251 136.519608,70.404282 
	C136.243347,74.828941 133.437943,76.763443 129.159409,76.793579 
	C128.494293,76.798264 127.829155,76.798538 126.701263,76.802902 
z"/>
<path fill="#040404" opacity="1.000000" stroke="none" 
	d="
M71.001785,129.838287 
	C87.643654,129.838287 103.786003,129.838287 120.010620,129.838287 
	C117.113228,138.639282 112.312752,142.257660 103.786880,142.257629 
	C88.623421,142.257553 73.459930,142.277756 58.296535,142.246643 
	C52.679363,142.235123 49.883480,140.063202 49.974983,135.956833 
	C50.067081,131.823792 52.771049,129.872513 58.504871,129.842529 
	C62.503902,129.821625 66.503128,129.838364 71.001785,129.838287 
z"/>
<path fill="#050505" opacity="1.000000" stroke="none" 
	d="
M62.094288,175.122467 
	C59.782818,175.110214 57.951725,175.176529 56.130756,175.069916 
	C52.430786,174.853317 50.155308,172.812943 50.037766,169.151001 
	C49.912041,165.234253 52.213177,162.828354 56.108315,162.713226 
	C63.077080,162.507233 70.055946,162.638245 77.030594,162.637650 
	C82.510643,162.637161 87.993141,162.552231 93.469986,162.688385 
	C98.028770,162.801712 101.049225,165.477539 100.643951,169.144333 
	C100.190468,173.247269 97.590759,175.139664 93.467148,175.125778 
	C83.171295,175.091110 72.875229,175.119614 62.094288,175.122467 
z"/>
<path fill="#0E0E0E" opacity="1.000000" stroke="none" 
	d="
M200.922577,70.901932 
	C200.068893,73.244308 199.474182,75.351891 198.322403,77.090431 
	C196.813431,79.368111 194.941269,79.643509 192.537231,77.708839 
	C187.301926,73.495651 181.833038,69.572701 176.389526,65.478416 
	C179.768036,61.419270 183.045624,55.865410 189.262009,58.356407 
	C194.527756,60.466484 200.468170,63.201893 200.922577,70.901932 
z"/>
</svg>